<?xml version="1.0" standalone="no"?>
<!DOCTYPE svg PUBLIC "-//W3C//DTD SVG 20010904//EN"
 "http://www.w3.org/TR/2001/REC-SVG-20010904/DTD/svg10.dtd">
<svg version="1.0" xmlns="http://www.w3.org/2000/svg"
 width="1143.000000pt" height="1143.000000pt" viewBox="0 0 1143.000000 1143.000000"
 preserveAspectRatio="xMidYMid meet">
<metadata>
Created by potrace 1.11, written by Peter Selinger 2001-2013
</metadata>
<g transform="translate(0.000000,1143.000000) scale(0.100000,-0.100000)"
fill="#000000" stroke="none">
<path d="M3037 7558 c6 -7 10 -69 9 -137 -1 -71 3 -130 9 -138 6 -8 24 -14 40
-13 110 5 968 2 1002 -4 27 -4 44 -3 49 5 3 6 7 71 8 143 1 72 5 137 9 144 7
9 -109 12 -564 12 -456 0 -569 -3 -562 -12z"/>
<path d="M4395 7423 l0 -147 525 -1 c289 0 530 -3 535 -6 6 -4 19 -3 30 1 19
7 21 16 20 136 -1 71 2 137 7 147 8 16 -21 17 -554 17 l-563 0 0 -147z"/>
<path d="M5748 7553 c5 -10 8 -60 7 -110 -3 -125 -2 -123 -24 -123 -10 0 -24
-7 -31 -15 -19 -23 5 -47 39 -39 14 4 269 7 566 8 297 1 545 5 551 8 6 4 10
55 9 135 -1 70 3 134 8 141 8 9 -106 12 -562 12 -541 0 -571 -1 -563 -17z"/>
<path d="M7098 7553 c11 -20 9 -182 -2 -230 -5 -21 -3 -34 6 -39 12 -8 1092
-14 1116 -6 8 3 10 12 6 26 -11 30 -12 217 -3 244 l9 22 -571 0 c-539 0 -569
-1 -561 -17z"/>
<path d="M7545 6632 c-151 -43 -184 -54 -220 -77 -22 -13 -56 -32 -75 -42 -39
-19 -150 -131 -150 -150 0 -7 -4 -13 -9 -13 -6 0 -16 -12 -23 -27 -7 -15 -26
-34 -43 -43 -37 -19 -48 -32 -32 -42 13 -8 19 -48 7 -48 -3 0 -5 -51 -4 -112
2 -62 -1 -128 -6 -146 -7 -27 -5 -35 11 -45 10 -6 19 -18 19 -25 0 -8 6 -26
14 -40 26 -49 56 -118 56 -130 0 -7 5 -12 10 -12 6 0 10 -7 10 -15 0 -8 6 -15
13 -15 7 0 24 -10 37 -22 43 -40 118 -87 192 -120 40 -18 83 -42 96 -52 25
-22 52 -29 52 -14 0 6 21 7 58 3 63 -7 83 -7 157 -2 28 2 59 1 70 -3 10 -4 35
-3 55 1 19 4 53 9 75 10 22 1 45 5 50 8 21 11 39 9 50 -6 10 -13 13 -13 26 3
7 9 12 20 9 23 -8 10 82 50 120 53 24 3 38 11 45 26 5 12 18 25 27 28 10 3 18
11 18 18 0 8 7 19 15 26 14 11 14 14 0 24 -9 6 -17 19 -18 28 -2 9 -14 27 -27
41 -14 14 -26 31 -26 36 -1 6 -2 15 -3 20 -3 21 -77 -5 -115 -41 -26 -23 -75
-37 -101 -28 -21 8 -93 -22 -107 -44 -4 -6 -8 -7 -8 -2 0 5 -7 3 -14 -4 -46
-37 -283 -29 -333 12 -7 6 -13 7 -13 3 0 -3 -11 3 -25 14 -15 11 -35 18 -46
16 -48 -9 -135 58 -174 136 -10 19 -22 40 -28 48 -6 7 -12 18 -13 25 -1 6 -9
30 -18 54 -19 53 -19 46 -2 86 8 19 12 37 9 40 -11 11 32 113 58 139 16 15 29
32 29 37 0 6 15 20 34 31 19 11 41 31 50 44 15 22 48 35 113 43 6 1 19 10 29
19 12 13 36 18 88 19 39 2 80 4 90 7 16 3 87 -9 156 -28 8 -2 23 -4 32 -4 9
-1 31 -13 48 -27 17 -15 39 -28 48 -29 49 -5 132 -62 125 -85 -1 -3 12 -6 28
-6 16 -1 29 2 29 7 0 4 11 19 25 32 14 13 28 36 31 53 2 16 9 41 15 56 9 22 8
30 -4 43 -9 8 -20 15 -26 15 -6 0 -11 6 -11 13 0 21 -34 47 -60 47 -21 0 -60
33 -60 51 0 5 -17 8 -38 7 -21 0 -48 4 -61 11 -12 7 -25 10 -28 7 -3 -2 -17 0
-32 6 -14 6 -44 15 -66 19 -22 5 -51 12 -65 15 -40 10 -60 11 -106 4 -24 -4
-44 -4 -44 -1 0 11 -45 8 -95 -7z"/>
<path d="M3113 6587 c-2 -4 -8 -5 -12 -2 -5 2 -6 -8 -4 -23 3 -15 6 -262 7
-549 1 -287 5 -526 9 -530 5 -4 155 -8 335 -9 180 -1 344 -5 365 -9 23 -4 43
-2 51 5 8 6 36 9 62 7 37 -3 53 1 68 15 18 17 47 23 88 19 10 -1 26 11 37 30
11 17 31 39 46 49 15 10 26 20 26 24 -1 3 6 23 14 44 28 66 38 205 19 280 -6
26 -14 60 -18 75 -4 15 -11 25 -15 22 -12 -7 -51 43 -51 66 0 10 5 21 11 24
19 13 31 59 35 135 1 41 5 85 8 97 3 13 -1 29 -7 36 -7 7 -20 28 -31 47 -19
36 -101 120 -116 120 -5 0 -13 6 -17 13 -4 6 -19 13 -33 15 -58 7 -872 6 -877
-1z m804 -200 c36 -19 58 -51 47 -69 -4 -7 -3 -8 4 -4 7 4 12 2 12 -3 0 -6 -5
-11 -12 -11 -6 0 -9 -3 -5 -6 3 -4 0 -13 -8 -20 -8 -8 -12 -23 -10 -33 5 -25
-19 -44 -75 -61 -51 -16 -474 -22 -526 -8 -17 4 -35 18 -41 31 -10 22 -10 173
1 184 14 15 92 19 326 18 217 -2 260 -4 287 -18z m15 -434 c13 -12 34 -24 46
-26 29 -4 46 -22 49 -50 1 -12 5 -38 8 -57 8 -53 -19 -98 -75 -121 -35 -15
-51 -17 -80 -9 -17 4 -29 2 -37 -9 -10 -14 -44 -16 -240 -17 -313 -2 -310 -4
-309 179 1 89 4 111 18 121 12 9 93 12 306 12 286 -1 291 -1 314 -23z"/>
<path d="M4671 6590 c-9 -7 -7 -1097 2 -1106 13 -13 177 -13 178 0 1 6 2 101
4 211 3 204 6 240 25 259 7 7 84 11 215 11 112 0 207 3 210 7 4 4 9 47 10 96
l2 88 -213 -1 c-262 0 -248 -7 -249 131 0 77 3 98 16 108 25 17 730 16 752 -2
14 -12 15 -6 13 55 -1 37 1 80 5 95 14 53 16 52 -493 53 -259 0 -473 -2 -477
-5z"/>
<path d="M5978 6589 c-11 -6 -13 -106 -13 -553 1 -300 4 -549 8 -553 4 -4 200
-7 436 -8 l428 0 -3 90 c-1 49 -3 92 -3 95 -1 3 -147 5 -326 4 -276 0 -327 2
-338 14 -9 11 -12 122 -12 453 0 323 -4 442 -12 450 -14 14 -144 20 -165 8z"/>
<path d="M0 4243 c0 -275 1 -285 18 -270 18 17 54 16 76 -1 6 -5 28 -9 49 -8
20 0 37 -2 37 -6 0 -11 120 54 121 66 3 53 31 88 60 78 18 -7 52 -56 65 -93 5
-14 100 -53 134 -54 8 0 26 5 40 11 22 10 90 24 145 30 11 1 40 -8 65 -20 25
-13 53 -22 63 -20 9 1 19 -2 22 -6 3 -5 24 2 46 14 29 17 51 22 80 19 38 -5
46 2 39 32 -1 6 -3 49 -5 97 -2 72 1 92 15 108 9 11 19 17 22 14 3 -2 8 4 10
14 5 19 -33 72 -52 72 -5 0 -10 4 -10 9 0 31 -133 45 -204 20 -27 -9 -64 -16
-82 -14 -19 1 -34 -2 -34 -7 0 -4 -13 -8 -30 -8 -16 0 -30 4 -30 8 0 13 -71
34 -123 36 -50 2 -114 -22 -110 -42 2 -6 -15 -23 -37 -37 -44 -28 -48 -38 -25
-62 17 -17 14 -40 -4 -35 -6 1 -11 -2 -11 -8 0 -5 5 -10 10 -10 7 0 7 -6 1
-19 -6 -10 -7 -21 -4 -25 3 -3 -1 -6 -10 -6 -20 0 -31 34 -18 58 7 13 7 22 -1
30 -9 9 -9 12 1 12 11 0 11 3 0 17 -8 9 -9 14 -3 10 7 -4 14 -1 17 7 3 8 -4
18 -17 24 -14 6 -26 23 -29 42 -4 19 -12 30 -19 28 -7 -3 -36 1 -66 8 -29 7
-63 10 -75 8 -12 -3 -37 -8 -54 -10 -37 -6 -35 -9 -36 102 0 43 -4 52 -24 61
l-23 11 0 -285z m209 46 c9 -14 26 -41 39 -60 19 -29 21 -42 16 -89 -9 -74
-33 -108 -80 -108 -19 0 -38 -2 -41 -5 -2 -3 -18 -1 -34 5 -22 7 -31 19 -39
49 -6 21 -14 40 -18 43 -15 9 -5 123 12 147 38 55 117 64 145 18z m358 14 c10
-10 22 -26 26 -35 3 -10 11 -18 16 -18 18 0 0 -28 -22 -35 -34 -11 -100 -12
-120 -2 -14 7 -17 15 -12 40 4 18 13 39 21 47 19 22 67 23 91 3z m198 9 c6 -4
12 -16 13 -27 2 -11 14 -30 27 -43 18 -18 22 -29 16 -45 -8 -22 -60 -58 -73
-50 -5 2 -9 -2 -9 -9 -1 -7 -2 -17 -4 -23 -1 -5 -3 -16 -3 -22 -1 -8 -16 -13
-37 -13 -18 0 -38 -6 -42 -13 -17 -28 -86 -59 -117 -53 -57 12 -76 32 -76 80
0 28 6 48 16 57 17 14 133 20 175 8 41 -11 51 2 52 72 2 74 27 107 62 81z
m170 -2 c3 -6 18 -8 32 -6 20 4 23 2 18 -12 -4 -9 -7 -27 -6 -40 0 -13 -3 -20
-9 -17 -6 3 -10 1 -10 -6 0 -7 -3 -10 -6 -6 -4 3 -21 0 -40 -8 -18 -7 -40 -12
-50 -11 -17 3 -32 30 -28 54 1 6 2 17 3 22 0 6 6 10 12 10 6 0 17 7 25 15 18
17 50 20 59 5z m56 -161 c1 -10 1 -28 1 -39 0 -11 0 -24 -1 -28 -2 -13 -38
-53 -48 -53 -4 1 -23 -2 -41 -5 -26 -5 -38 -2 -58 17 -13 12 -24 27 -24 33 0
25 48 68 95 85 55 21 74 18 76 -10z"/>
<path d="M955 4290 c-3 -5 -1 -10 4 -10 6 0 11 5 11 10 0 6 -2 10 -4 10 -3 0
-8 -4 -11 -10z"/>
<path d="M2464 4508 c-15 -7 -20 -16 -16 -33 2 -12 -4 -35 -13 -49 -16 -25
-16 -26 0 -26 12 0 15 -5 11 -16 -3 -9 -6 -18 -6 -20 0 -3 -5 -2 -10 1 -6 4
-7 12 -4 18 4 7 -4 2 -18 -11 -13 -12 -28 -19 -31 -15 -4 3 -7 -1 -7 -11 0 -9
5 -14 10 -11 6 3 10 1 10 -4 0 -6 5 -11 11 -11 6 0 18 -7 27 -17 14 -13 17
-38 18 -132 0 -64 -3 -127 -6 -141 -9 -32 12 -54 45 -46 20 5 22 10 16 38 -12
53 -7 276 6 289 6 6 23 12 37 12 15 0 29 3 31 8 8 11 -47 59 -59 52 -6 -3 -8
-3 -4 1 4 5 3 19 -2 32 -7 19 -5 28 11 43 12 11 26 18 33 15 6 -2 17 5 24 16
10 17 10 20 -5 21 -10 1 -34 3 -53 4 -19 1 -44 -2 -56 -7z"/>
<path d="M6865 4510 l-40 -5 -1 -93 c0 -73 2 -92 13 -88 7 3 13 1 13 -3 0 -5
3 -16 6 -24 3 -9 -9 -30 -30 -51 -30 -32 -36 -34 -49 -21 -13 12 -15 11 -20
-12 -3 -15 -4 -62 -3 -105 2 -72 4 -79 31 -103 17 -14 38 -28 48 -31 9 -3 17
-11 17 -19 0 -9 8 -12 28 -9 15 3 35 6 45 7 9 1 17 6 17 11 0 5 3 7 6 3 3 -3
26 3 51 14 56 24 70 24 124 -1 40 -17 45 -18 56 -4 14 19 7 44 -12 44 -8 0
-19 16 -25 35 -10 30 -9 42 6 73 14 31 20 77 15 127 -2 22 -41 10 -53 -16 -7
-15 -15 -26 -19 -23 -4 2 -11 -1 -15 -7 -4 -7 -3 -9 3 -6 15 10 26 -40 14 -62
-19 -35 -42 -34 -70 2 -11 14 -11 20 0 34 9 10 9 14 2 10 -7 -5 -16 1 -23 13
-7 13 -7 20 0 20 5 0 10 5 10 11 0 8 -5 8 -15 -1 -20 -16 -47 4 -38 28 11 30
43 43 43 18 0 -8 4 -17 9 -20 5 -4 7 3 4 13 -3 11 4 33 15 48 14 19 21 50 24
97 l5 68 -36 16 c-39 16 -92 20 -156 12z m122 -69 c8 -18 8 -30 -1 -50 -22
-49 -41 -71 -63 -71 -18 0 -21 5 -18 30 2 17 0 30 -5 30 -14 0 -12 39 3 54 19
19 51 36 62 32 6 -1 15 -13 22 -25z m-44 -283 c19 -24 42 -55 51 -70 l17 -26
-50 -25 c-43 -22 -51 -24 -62 -11 -8 10 -15 11 -25 3 -9 -7 -20 -6 -38 6 -29
19 -28 18 -28 60 -1 58 2 65 22 65 12 0 17 5 14 13 -3 10 4 13 25 12 17 -1 28
2 25 7 -3 4 -1 8 5 8 5 0 25 -19 44 -42z"/>
<path d="M1573 4494 c-3 -8 -9 -12 -14 -9 -4 3 -2 -6 5 -19 9 -19 12 -84 11
-251 -1 -124 2 -228 7 -231 4 -3 18 -2 29 1 19 6 20 12 14 44 -4 20 -8 72 -8
116 -1 94 12 120 74 153 51 28 76 28 84 1 4 -11 13 -18 20 -15 9 3 12 -3 10
-20 -3 -28 -15 -45 -15 -21 0 9 -4 19 -10 22 -16 10 1 -29 19 -43 13 -10 16
-34 16 -125 l0 -112 25 0 25 0 2 115 c4 182 4 193 -8 223 -7 15 -14 26 -16 23
-3 -2 -19 1 -36 8 -18 7 -41 12 -52 10 -36 -3 -91 -13 -108 -19 -21 -9 -35 21
-32 70 2 22 4 45 5 50 5 22 -1 33 -21 38 -12 3 -22 0 -26 -9z"/>
<path d="M5570 4493 c0 -9 -5 -11 -12 -7 -8 5 -7 0 2 -11 12 -15 15 -59 15
-254 0 -229 1 -236 20 -236 19 0 20 7 20 241 0 189 3 244 14 257 14 18 13 19
-31 22 -18 1 -28 -3 -28 -12z"/>
<path d="M5739 4507 c-1 -1 -3 -11 -4 -23 -3 -29 27 -47 50 -30 24 18 12 51
-20 54 -14 1 -26 1 -26 -1z"/>
<path d="M8457 4492 c-3 -9 -4 -127 -3 -262 l1 -245 25 0 25 0 0 254 c-1 251
-1 254 -22 262 -17 6 -23 4 -26 -9z"/>
<path d="M7878 4495 c-3 -4 0 -18 7 -33 10 -20 12 -85 11 -250 -1 -123 2 -225
6 -228 5 -3 18 -2 29 1 18 6 20 12 14 43 -7 43 -9 405 -2 443 4 22 1 25 -27
27 -18 1 -35 0 -38 -3z"/>
<path d="M9694 4486 c-4 -9 -7 -38 -8 -64 -2 -62 -9 -71 -49 -65 -45 8 -97 7
-129 -2 -39 -10 -94 -82 -101 -130 -2 -22 -7 -50 -10 -63 -4 -13 -2 -31 3 -40
5 -9 14 -36 20 -59 10 -39 58 -92 78 -86 4 1 21 -7 38 -17 23 -15 33 -17 42
-8 7 7 12 9 12 5 0 -4 16 0 36 8 20 8 49 15 65 15 36 0 40 8 39 72 -1 29 -2
140 -3 247 -1 145 -5 195 -14 198 -7 3 -16 -3 -19 -11z m-64 -186 c20 -11 23
-29 6 -42 -5 -3 3 -17 18 -31 37 -34 41 -101 6 -110 -11 -3 -20 -10 -20 -16 0
-6 6 -8 14 -5 26 10 25 -12 -3 -42 -23 -24 -35 -30 -69 -28 -43 1 -97 28 -87
44 3 5 -3 14 -13 19 -20 11 -35 58 -22 66 5 3 10 0 12 -7 3 -7 7 -5 11 6 4 11
3 15 -4 11 -13 -8 -7 38 9 78 7 16 12 32 12 37 0 5 10 16 22 24 23 16 73 15
108 -4z m36 -62 c-15 -10 -19 -3 -10 24 7 22 7 22 14 3 4 -11 3 -23 -4 -27z"/>
<path d="M5703 4403 c-7 -2 -13 -8 -13 -12 0 -11 34 -7 38 4 4 11 -8 15 -25 8z"/>
<path d="M1265 4360 c-45 -8 -108 -34 -100 -41 2 -3 0 -21 -5 -40 -6 -18 -12
-62 -15 -96 -3 -35 -6 -66 -7 -71 -6 -31 78 -132 110 -132 12 0 24 -4 27 -10
10 -16 56 -12 115 11 30 11 63 23 73 26 15 5 16 8 5 14 -10 6 -10 11 -1 20 16
16 -9 41 -45 44 -22 2 -27 -2 -29 -22 -2 -34 -13 -43 -62 -48 -50 -4 -90 25
-93 68 -1 15 -6 27 -10 27 -8 0 -21 37 -23 68 -1 12 2 22 6 22 4 0 11 9 14 20
4 11 10 18 15 15 10 -6 8 15 -3 31 -9 15 11 31 48 37 17 3 37 8 45 11 20 8 34
-3 51 -39 24 -51 88 -42 72 10 -8 29 -51 68 -76 72 -59 8 -75 9 -112 3z"/>
<path d="M2994 4358 c-90 -19 -117 -94 -101 -278 5 -58 32 -100 63 -100 13 0
24 -4 24 -8 0 -4 13 -12 29 -18 23 -9 38 -7 86 13 65 28 81 40 95 77 7 20 6
27 -8 35 -13 7 -24 2 -50 -25 -26 -27 -40 -33 -60 -30 -15 2 -37 5 -49 5 -52
2 -106 109 -65 129 29 15 145 7 173 -12 32 -21 55 -13 64 22 10 37 13 92 4 92
-3 0 -10 14 -15 32 -16 55 -101 85 -190 66z m116 -65 c10 -10 21 -27 24 -38
11 -37 -8 -48 -81 -49 -73 -2 -103 9 -103 36 0 9 8 22 18 27 9 6 13 11 7 11
-5 0 4 9 20 20 36 24 89 21 115 -7z"/>
<path d="M3385 4358 c-21 -5 -50 -19 -63 -31 -44 -41 -91 -157 -64 -157 4 0 7
-15 7 -32 0 -18 4 -39 10 -47 8 -12 7 -13 -5 -6 -13 8 -13 7 0 -9 8 -10 19
-28 25 -39 6 -12 36 -39 67 -59 l56 -37 75 30 c83 34 104 59 80 96 -15 22 -43
21 -43 -2 0 -17 -29 -40 -65 -52 -38 -13 -70 -2 -107 37 -23 25 -26 33 -18 55
7 18 6 25 -2 25 -7 0 -2 8 12 17 26 18 151 26 181 12 25 -12 50 12 56 53 3 28
-2 48 -22 82 -34 58 -24 52 -120 69 -11 2 -38 0 -60 -5z m73 -79 c2 -13 8 -29
13 -36 17 -20 -27 -41 -78 -37 -60 4 -68 16 -49 71 15 46 108 48 114 2z m47
-10 c0 -8 3 -16 7 -19 4 -3 3 -12 -3 -20 -8 -13 -11 -12 -22 5 -18 29 -17 53
2 50 9 -1 16 -8 16 -16z"/>
<path d="M3814 4361 c-10 -4 -39 -6 -64 -6 -26 0 -49 -5 -55 -12 -6 -8 -10
-84 -10 -180 1 -147 3 -168 18 -177 28 -18 35 7 32 123 -1 75 2 114 12 134 8
15 17 25 22 23 4 -3 14 4 22 15 24 35 46 41 78 24 24 -12 29 -20 25 -41 -3
-14 1 -33 8 -42 7 -8 12 -17 11 -19 -2 -1 -2 -4 -2 -5 6 -10 4 -158 -1 -158
-4 0 -7 -12 -6 -27 1 -23 6 -29 29 -31 26 -3 33 6 27 33 -1 6 -4 52 -5 103 -3
128 19 175 92 200 27 9 36 8 58 -10 24 -19 25 -22 11 -44 -14 -21 -14 -24 1
-40 14 -14 17 -37 18 -128 0 -107 1 -111 23 -114 26 -4 24 -9 28 128 5 168 6
184 16 196 17 22 -56 56 -118 55 -30 0 -58 -2 -63 -5 -20 -13 -74 -16 -87 -5
-16 13 -91 19 -120 10z"/>
<path d="M4354 4355 c-47 -9 -84 -32 -84 -52 0 -4 14 -19 30 -33 32 -26 38
-45 18 -54 -7 -3 -4 -4 7 -3 14 1 20 -4 20 -18 0 -25 -32 -32 -38 -8 -4 16 -5
16 -6 -2 -1 -11 -10 -38 -20 -59 -18 -38 -21 -102 -6 -126 11 -18 78 -42 120
-42 24 -1 53 7 73 19 28 17 38 19 63 10 23 -9 32 -8 44 3 12 13 12 19 2 40
-27 52 -10 250 22 250 6 0 7 15 2 51 -1 3 -11 5 -23 4 -13 -2 -33 3 -44 11
-29 17 -117 22 -180 9z m-53 -48 c-10 -9 -11 -8 -5 6 3 10 9 15 12 12 3 -3 0
-11 -7 -18z m172 -6 c4 0 12 -1 18 -1 6 0 8 -9 4 -21 -5 -14 -3 -19 3 -15 6 4
10 -2 9 -14 -1 -11 -6 -20 -12 -21 -28 -2 -53 -8 -81 -20 -42 -17 -64 -7 -64
29 0 33 35 76 56 68 8 -3 14 -1 14 4 0 6 9 6 23 1 12 -5 25 -9 30 -10z m37
-156 c7 -4 6 -14 -2 -28 -6 -12 -11 -23 -10 -24 14 -21 -14 -49 -55 -56 -10
-2 -31 -9 -46 -15 -49 -20 -76 8 -67 68 2 18 21 31 36 26 6 -2 16 4 22 14 16
25 91 34 122 15z"/>
<path d="M4825 4354 c-27 -7 -63 -11 -80 -8 -31 5 -75 -12 -75 -30 0 -6 8 -16
18 -23 16 -10 18 -24 16 -120 -1 -59 -5 -124 -9 -144 -8 -40 3 -54 34 -44 17
5 18 16 16 112 -2 101 -1 108 22 131 13 13 21 27 18 32 -8 13 28 51 50 51 29
1 79 -11 88 -20 5 -5 11 -21 13 -37 9 -52 11 -208 4 -229 -8 -20 9 -45 29 -45
21 0 40 31 32 53 -11 31 -2 251 11 272 11 17 -4 30 -47 42 -68 20 -88 21 -140
7z"/>
<path d="M5752 4353 c2 -10 -3 -23 -11 -29 -10 -8 -12 -17 -6 -30 10 -24 13
-250 4 -266 -11 -18 9 -48 31 -48 11 0 24 9 30 20 6 11 7 20 3 20 -11 0 -11
286 0 296 8 8 -31 54 -45 54 -5 0 -8 -8 -6 -17z"/>
<path d="M6087 4364 c-2 -3 -36 -6 -76 -8 -39 -2 -74 -6 -77 -9 -10 -9 -11
-323 -2 -347 9 -25 35 -26 41 -2 3 9 4 62 3 117 -3 116 2 134 46 175 41 37 75
39 88 5 5 -14 12 -25 15 -25 4 0 4 4 0 9 -3 5 -1 12 4 15 17 11 21 -11 6 -24
-14 -11 -14 -15 0 -36 9 -13 13 -24 9 -24 -4 0 -2 -6 3 -12 9 -11 9 -108 1
-188 -2 -20 2 -26 21 -28 28 -4 41 13 34 42 -8 29 -8 175 0 206 8 29 40 75 53
76 5 0 26 4 47 9 64 13 66 7 70 -210 2 -116 3 -120 25 -123 26 -4 24 -11 28
138 1 63 4 130 7 149 3 27 -3 42 -23 64 -24 27 -33 30 -84 29 -32 0 -63 -5
-69 -11 -15 -15 -51 -14 -114 3 -28 8 -54 12 -56 10z"/>
<path d="M7603 4360 c-38 -6 -117 -49 -107 -59 2 -2 -3 -12 -11 -21 -10 -12
-16 -45 -18 -117 -3 -89 -1 -102 15 -112 10 -6 16 -16 13 -21 -3 -6 -2 -10 3
-10 4 0 18 -9 30 -20 12 -12 22 -18 22 -15 0 3 16 -4 36 -14 39 -21 56 -19
137 17 29 13 52 31 59 47 14 31 3 45 -38 48 -23 2 -30 -2 -32 -20 -4 -25 -38
-54 -56 -48 -6 2 -26 6 -45 9 -36 5 -53 24 -57 65 -2 13 -7 27 -13 30 -18 12
-7 129 16 159 11 15 24 27 29 28 5 0 17 4 27 7 9 4 24 9 33 12 14 5 41 -18 83
-70 10 -13 16 -14 21 -5 4 7 13 9 19 6 10 -6 16 20 12 47 0 4 3 7 7 7 15 0 9
30 -7 35 -37 11 -139 20 -178 15z"/>
<path d="M8160 4360 c-57 -10 -92 -33 -114 -72 -18 -32 -21 -53 -19 -145 2
-138 3 -142 23 -138 10 2 29 -2 42 -9 13 -7 38 -16 54 -20 16 -4 36 -14 45
-22 15 -13 21 -13 58 2 22 9 41 19 41 23 0 4 15 15 33 26 17 10 35 23 39 28 8
13 -12 58 -23 51 -5 -3 -9 0 -9 6 0 6 -4 9 -9 6 -5 -4 -8 2 -6 11 1 10 -3 24
-9 32 -6 8 -6 12 -1 9 6 -4 19 0 29 8 41 29 1 172 -53 193 -37 14 -80 18 -121
11z m89 -60 c28 -14 28 -64 1 -83 -48 -33 -152 2 -129 44 5 11 7 19 4 19 -10
0 19 26 35 32 21 8 64 2 89 -12z m18 -154 c21 -11 30 -22 26 -32 -3 -8 0 -20
6 -28 9 -11 8 -14 -5 -12 -9 0 -19 -5 -22 -13 -3 -8 0 -11 7 -7 6 4 11 2 11
-4 0 -7 -7 -10 -15 -6 -8 3 -18 -2 -23 -11 -7 -12 -13 -13 -29 -5 -20 11 -48
11 -59 -1 -4 -3 3 -4 15 -2 12 2 19 0 16 -5 -7 -12 -35 -6 -46 11 -5 8 -9 10
-9 6 0 -17 -35 27 -36 46 -1 14 4 17 20 13 17 -4 15 -1 -8 17 -29 23 -25 37
13 49 30 9 108 0 138 -16z"/>
<path d="M8708 4362 c-42 -4 -109 -59 -88 -72 7 -4 11 -10 11 -14 -1 -3 -1 -8
-1 -11 0 -2 17 5 38 17 45 25 88 38 97 30 4 -4 11 -8 16 -8 5 -1 13 -2 18 -3
16 -2 20 -41 6 -55 -8 -7 -12 -15 -10 -18 2 -2 -7 -4 -20 -3 -13 0 -30 6 -36
12 -10 10 -21 4 -51 -27 -20 -22 -49 -45 -63 -50 -14 -5 -25 -16 -24 -22 1 -7
-1 -25 -5 -40 -20 -71 -9 -108 32 -115 9 -1 18 -7 20 -13 2 -5 8 -8 13 -4 5 3
9 1 9 -4 0 -5 6 -9 13 -10 6 0 22 -3 34 -6 13 -3 29 2 37 10 8 8 19 14 25 14
6 0 11 5 11 11 0 8 12 10 34 6 53 -8 79 1 71 27 -11 36 -12 198 0 210 18 20
17 48 -4 63 -12 8 -21 20 -21 27 0 35 -71 55 -162 48z m115 -197 c4 -8 2 -17
-4 -21 -7 -4 -6 -10 1 -19 5 -7 8 -23 6 -36 -3 -13 -5 -27 -5 -30 -1 -3 -18
-15 -39 -27 -26 -14 -42 -18 -52 -12 -8 6 -22 10 -30 10 -13 0 -13 -1 0 -10
12 -8 11 -10 -6 -10 -25 0 -43 18 -49 50 -3 17 -1 20 13 15 9 -3 13 -3 9 1
-10 10 25 64 43 65 8 1 23 2 33 2 9 0 17 5 17 13 0 11 17 20 46 23 7 0 14 -6
17 -14z"/>
<path d="M9166 4363 c-4 -5 -58 -16 -71 -15 -5 1 -25 2 -43 3 -38 2 -53 -13
-45 -45 8 -33 10 -238 2 -267 -7 -29 10 -59 34 -59 22 0 26 22 23 125 -4 140
25 197 106 210 28 5 38 1 57 -21 12 -14 25 -36 28 -47 8 -32 11 -200 4 -212
-9 -16 -7 -29 6 -43 17 -18 55 5 44 27 -8 16 -6 170 2 221 2 14 9 35 15 47 16
28 15 33 -3 33 -8 0 -15 4 -15 8 0 17 -131 48 -144 35z"/>
<path d="M2653 4337 c-4 -12 -6 -26 -4 -32 2 -5 4 -78 5 -162 1 -84 5 -155 8
-159 4 -3 15 -3 25 0 17 5 19 18 18 121 0 92 3 118 15 125 8 5 11 10 6 10 -11
0 41 51 82 79 18 12 30 27 27 32 -8 13 -59 11 -89 -2 -14 -7 -33 -8 -43 -4
-34 15 -42 13 -50 -8z"/>
<path d="M11325 4345 c-27 -6 -88 -10 -134 -8 -46 2 -88 -1 -95 -6 -8 -7 -11
-51 -10 -143 0 -73 -2 -142 -7 -153 -8 -22 10 -55 30 -55 19 0 43 28 31 35
-16 10 -8 47 16 71 33 34 56 42 104 38 25 -3 69 1 98 7 45 11 55 10 63 -2 5
-9 9 31 9 106 -1 92 -3 116 -12 101 -10 -19 -11 -19 -27 1 -15 18 -21 18 -66
8z m10 -71 c65 -34 57 -74 -19 -95 -86 -24 -167 -16 -182 19 -12 28 -11 66 3
82 20 25 147 20 198 -6z"/>
<path d="M10299 4342 c-10 -5 -15 -16 -12 -32 2 -14 5 -90 6 -170 1 -80 5
-149 9 -155 10 -16 309 -10 319 6 4 7 6 16 3 19 -3 3 -59 5 -125 6 -157 0
-153 -4 -154 154 0 81 4 123 12 131 10 10 9 17 -4 31 -17 19 -28 21 -54 10z"/>
<path d="M10695 4171 c0 -97 4 -181 7 -186 7 -11 284 -12 295 -1 4 3 8 13 9
21 2 11 -15 13 -89 11 -180 -7 -185 -2 -182 174 1 63 3 120 5 125 6 21 -1 30
-23 31 l-24 2 2 -177z"/>
<path d="M6766 4265 c-11 -8 -15 -15 -9 -15 6 0 16 7 23 15 16 19 11 19 -14 0z"/>
<path d="M2030 4040 c-11 -7 -15 -28 -15 -76 0 -57 -3 -68 -24 -85 l-23 -19
46 0 c45 0 46 1 42 26 -3 15 -1 34 3 43 5 9 11 33 14 53 5 43 -18 74 -43 58z"/>
<path d="M5147 4033 c-3 -5 -4 -28 -3 -53 1 -25 -4 -62 -11 -82 l-12 -38 35 0
c21 0 33 4 29 10 -9 14 5 51 16 44 6 -3 7 7 4 26 -3 19 -2 29 4 26 5 -4 13 -1
17 5 3 6 0 15 -7 20 -11 7 -11 9 -1 9 10 0 10 5 2 20 -11 20 -64 29 -73 13z"/>
<path d="M9883 4028 c-6 -7 -16 -23 -22 -36 -11 -21 -10 -22 13 -16 23 5 25 3
23 -23 -2 -19 -8 -28 -19 -27 -9 1 -15 -5 -13 -15 1 -9 -2 -24 -7 -33 -8 -16
-4 -18 33 -18 36 0 40 2 29 15 -13 16 -4 23 37 29 12 2 17 10 15 27 -1 13 -3
39 -5 57 -1 18 -9 37 -17 42 -21 14 -56 12 -67 -2z m78 -75 c0 -5 2 -15 4 -24
2 -12 -3 -15 -16 -12 -21 6 -21 6 -13 27 6 16 23 22 25 9z"/>
<path d="M5234 3952 c3 -5 0 -12 -6 -15 -7 -2 -10 -7 -7 -11 3 -4 12 0 18 8 9
11 9 16 0 22 -7 4 -9 3 -5 -4z"/>
</g>
</svg>
